<svg xmlns="http://www.w3.org/2000/svg" viewBox="0 0 129.67 101.99"><title>lb_logo_1</title><path d="M16.59,62.94,15,69.69c0,.23-.1.4-.14.53a.58.58,0,0,1-.19.3.49.49,0,0,1-.36.11q-.6,0-.6-.51a4.53,4.53,0,0,1,.12-.68l1.63-6.75a3,3,0,0,1,.25-.74.48.48,0,0,1,.45-.2.65.65,0,0,1,.45.14.47.47,0,0,1,.16.39A2.88,2.88,0,0,1,16.59,62.94Z" fill="#fff"/><path d="M19.82,63.33l.73-.35c.23-.12.41-.2.55-.26a1.1,1.1,0,0,1,.33-.08.52.52,0,0,1,.35.14.43.43,0,0,1,.15.34.44.44,0,0,1-.07.24.31.31,0,0,1-.16.16A7.47,7.47,0,0,1,20,64c.11.1.24.23.4.4l.26.27a3.36,3.36,0,0,0,.24.31,1.7,1.7,0,0,1,.22.28.49.49,0,0,1,.06.25.45.45,0,0,1-.14.33.49.49,0,0,1-.36.14c-.15,0-.32-.12-.5-.35a6.66,6.66,0,0,1-.72-1.24l-.6,1.07a2,2,0,0,1-.29.39.48.48,0,0,1-.32.13.46.46,0,0,1-.36-.15.45.45,0,0,1-.15-.32.38.38,0,0,1,.06-.24A8.86,8.86,0,0,1,19,64c-.33-.05-.62-.11-.88-.17a5.31,5.31,0,0,1-.82-.28.28.28,0,0,1-.14-.16.44.44,0,0,1,.08-.57.51.51,0,0,1,.34-.14,1.13,1.13,0,0,1,.36.08c.14.06.32.14.53.25l.74.36a8.28,8.28,0,0,1-.12-.85,5.33,5.33,0,0,1,0-.65.5.5,0,0,1,.14-.37.46.46,0,0,1,.7,0,.6.6,0,0,1,.14.41c0,.05,0,.14,0,.28s0,.31-.06.5S19.85,63.08,19.82,63.33Z" fill="#fff"/><path d="M27.14,61.9h2.27a6.16,6.16,0,0,1,1.52.16,2.75,2.75,0,0,1,1.14.61,4.34,4.34,0,0,1,1.35,3.5,6.88,6.88,0,0,1-.14,1.41,4.47,4.47,0,0,1-.41,1.15,3.57,3.57,0,0,1-.73.92,3.38,3.38,0,0,1-.75.5,3.59,3.59,0,0,1-.88.26,6.87,6.87,0,0,1-1.07.08H27.18a1.38,1.38,0,0,1-.72-.15.65.65,0,0,1-.31-.4,2.53,2.53,0,0,1-.08-.68V63a1.11,1.11,0,0,1,.26-.81A1.09,1.09,0,0,1,27.14,61.9Zm.67,1.37V69.1h1.32l.68,0a2.36,2.36,0,0,0,.51-.12,1.38,1.38,0,0,0,.46-.26,3.18,3.18,0,0,0,.87-2.54,3.83,3.83,0,0,0-.38-1.91,1.69,1.69,0,0,0-.95-.8A4.48,4.48,0,0,0,29,63.27Z" fill="#fff"/><path d="M40.61,63.24H36.69v2.11h3.6a.86.86,0,0,1,.6.18.59.59,0,0,1,.2.47.62.62,0,0,1-.2.47.82.82,0,0,1-.6.19h-3.6V69.1h4.05a.94.94,0,0,1,.62.19.66.66,0,0,1,.21.51.62.62,0,0,1-.21.49.89.89,0,0,1-.62.2H36a1.12,1.12,0,0,1-.82-.26,1.14,1.14,0,0,1-.24-.81V63a1.36,1.36,0,0,1,.11-.61.7.7,0,0,1,.35-.35,1.47,1.47,0,0,1,.6-.1h4.6a.89.89,0,0,1,.61.18.6.6,0,0,1,.21.48.61.61,0,0,1-.21.49A.84.84,0,0,1,40.61,63.24Z" fill="#fff"/><path d="M44.22,62.89l2,5.76,1.95-5.8a6.37,6.37,0,0,1,.23-.64.9.9,0,0,1,.25-.32.76.76,0,0,1,.48-.14.84.84,0,0,1,.41.11.82.82,0,0,1,.41.67,1,1,0,0,1,0,.28c0,.1,0,.19-.08.29l-.11.3L47.59,69c-.07.21-.15.42-.22.61a3,3,0,0,1-.26.51,1.12,1.12,0,0,1-.39.36,1.2,1.2,0,0,1-.59.14,1.11,1.11,0,0,1-.6-.14,1.12,1.12,0,0,1-.39-.36,2.44,2.44,0,0,1-.26-.51c-.08-.19-.15-.4-.23-.61l-2-5.57-.11-.3a1.4,1.4,0,0,1-.09-.31,1.17,1.17,0,0,1,0-.29.75.75,0,0,1,.24-.54.79.79,0,0,1,.6-.25.7.7,0,0,1,.63.27A3.34,3.34,0,0,1,44.22,62.89Z" fill="#fff"/><path d="M56.87,63.24H53v2.11h3.6a.86.86,0,0,1,.6.18.59.59,0,0,1,.2.47.62.62,0,0,1-.2.47.82.82,0,0,1-.6.19H53V69.1h4a.94.94,0,0,1,.62.19.66.66,0,0,1,.21.51.62.62,0,0,1-.21.49.89.89,0,0,1-.62.2H52.27a1.12,1.12,0,0,1-.82-.26,1.14,1.14,0,0,1-.24-.81V63a1.36,1.36,0,0,1,.11-.61.7.7,0,0,1,.35-.35,1.47,1.47,0,0,1,.6-.1h4.6a.89.89,0,0,1,.61.18.6.6,0,0,1,.21.48.61.61,0,0,1-.21.49A.84.84,0,0,1,56.87,63.24Z" fill="#fff"/><path d="M60.91,62.8v6.26h3.53a.92.92,0,0,1,.65.2.67.67,0,0,1,.22.52.64.64,0,0,1-.22.51,1,1,0,0,1-.65.2h-4.2a1.12,1.12,0,0,1-.82-.26,1.14,1.14,0,0,1-.25-.81V62.8a1.15,1.15,0,0,1,.24-.79.89.89,0,0,1,1.26,0A1.13,1.13,0,0,1,60.91,62.8Z" fill="#fff"/><path d="M69.64,61.75a4.59,4.59,0,0,1,2.29.54,3.54,3.54,0,0,1,1.45,1.54,5.25,5.25,0,0,1,.5,2.35A5.73,5.73,0,0,1,73.61,68a3.94,3.94,0,0,1-.81,1.41,3.61,3.61,0,0,1-1.33.92,4.78,4.78,0,0,1-1.8.31,4.85,4.85,0,0,1-1.8-.32,3.64,3.64,0,0,1-1.33-.92A4,4,0,0,1,65.73,68a5.85,5.85,0,0,1-.27-1.8,5.56,5.56,0,0,1,.29-1.82,3.8,3.8,0,0,1,.82-1.41,3.61,3.61,0,0,1,1.31-.88A4.64,4.64,0,0,1,69.64,61.75Zm2.47,4.42a4.1,4.1,0,0,0-.3-1.64,2.31,2.31,0,0,0-.87-1,2.37,2.37,0,0,0-1.3-.36,2.4,2.4,0,0,0-1,.2,2.21,2.21,0,0,0-.76.57,2.72,2.72,0,0,0-.5,1,4.4,4.4,0,0,0-.19,1.31,4.47,4.47,0,0,0,.19,1.32,2.69,2.69,0,0,0,.52,1,2.27,2.27,0,0,0,.77.59,2.53,2.53,0,0,0,1,.19,2.23,2.23,0,0,0,2.12-1.37A4,4,0,0,0,72.11,66.17Z" fill="#fff"/><path d="M78.7,67.14H77.1v2.43a1.15,1.15,0,0,1-.24.79.81.81,0,0,1-.62.27.84.84,0,0,1-.64-.26,1.15,1.15,0,0,1-.24-.79V63a1.08,1.08,0,0,1,.27-.82,1.19,1.19,0,0,1,.83-.24H78.7a5.88,5.88,0,0,1,1.52.15,2.34,2.34,0,0,1,.91.48,2.15,2.15,0,0,1,.58.84,2.73,2.73,0,0,1,.2,1.1,2.46,2.46,0,0,1-.8,2A3.7,3.7,0,0,1,78.7,67.14Zm-.42-3.94H77.1v2.63h1.18a3.62,3.62,0,0,0,1-.13,1.21,1.21,0,0,0,.63-.42,1.23,1.23,0,0,0,.22-.77,1.32,1.32,0,0,0-.33-.93A2.26,2.26,0,0,0,78.28,63.2Z" fill="#fff"/><path d="M86.27,69.19l-1.38-5.47v5.93a1.07,1.07,0,0,1-.22.74.82.82,0,0,1-1.16,0,1.11,1.11,0,0,1-.22-.74v-6.8a.87.87,0,0,1,.29-.76,1.44,1.44,0,0,1,.8-.19h.53a2.08,2.08,0,0,1,.71.08.61.61,0,0,1,.33.32,4.94,4.94,0,0,1,.24.74l1.24,4.71L88.68,63a4.94,4.94,0,0,1,.24-.74.61.61,0,0,1,.33-.32,2,2,0,0,1,.7-.08h.54a1.4,1.4,0,0,1,.79.19.85.85,0,0,1,.3.76v6.8a1.13,1.13,0,0,1-.22.74.78.78,0,0,1-.59.24.75.75,0,0,1-.57-.24,1.07,1.07,0,0,1-.22-.74V63.72L88.6,69.19c-.09.36-.16.62-.22.78a1.14,1.14,0,0,1-.31.46,1,1,0,0,1-.64.2.92.92,0,0,1-.51-.13,1,1,0,0,1-.33-.34,1.51,1.51,0,0,1-.18-.45C86.36,69.54,86.31,69.37,86.27,69.19Z" fill="#fff"/><path d="M99,63.24H95.1v2.11h3.61a.86.86,0,0,1,.6.18.58.58,0,0,1,.19.47.61.61,0,0,1-.19.47.82.82,0,0,1-.6.19H95.1V69.1h4.06a.94.94,0,0,1,.62.19.66.66,0,0,1,.2.51.61.61,0,0,1-.2.49.89.89,0,0,1-.62.2H94.43a1.12,1.12,0,0,1-.82-.26,1.14,1.14,0,0,1-.25-.81V63a1.51,1.51,0,0,1,.11-.61.79.79,0,0,1,.35-.35,1.53,1.53,0,0,1,.61-.1H99a.9.9,0,0,1,.62.18.59.59,0,0,1,.2.48.6.6,0,0,1-.2.49A.85.85,0,0,1,99,63.24Z" fill="#fff"/><path d="M103.63,62.79,107,67.85v-5.1a1.12,1.12,0,0,1,.21-.75.81.81,0,0,1,1.17,0,1.07,1.07,0,0,1,.22.75V69.5c0,.75-.31,1.13-.94,1.13a1.16,1.16,0,0,1-.42-.07,1,1,0,0,1-.35-.21,2.56,2.56,0,0,1-.31-.34c-.09-.13-.18-.27-.28-.4l-3.26-5v5a1.09,1.09,0,0,1-.23.74.74.74,0,0,1-.58.25.76.76,0,0,1-.6-.25,1.09,1.09,0,0,1-.22-.74V63a1.94,1.94,0,0,1,.09-.66,1,1,0,0,1,.93-.6.82.82,0,0,1,.4.08.84.84,0,0,1,.29.2,2.37,2.37,0,0,1,.26.33Z" fill="#fff"/><path d="M116.06,63.33h-1.9v6.24a1.14,1.14,0,0,1-.24.8.81.81,0,0,1-.62.26.83.83,0,0,1-.63-.26,1.16,1.16,0,0,1-.24-.8V63.33h-1.9a.9.9,0,0,1-.66-.2.64.64,0,0,1-.22-.51.66.66,0,0,1,.23-.53,1,1,0,0,1,.65-.19h5.53a1,1,0,0,1,.67.19.68.68,0,0,1,.22.53.64.64,0,0,1-.22.51A.94.94,0,0,1,116.06,63.33Z" fill="#fff"/><path d="M15.36,78.12a1.82,1.82,0,0,1,.28-1,2,2,0,0,1,.84-.71,3,3,0,0,1,1.29-.26,2.84,2.84,0,0,1,1.28.27,1.9,1.9,0,0,1,.8.73,1.72,1.72,0,0,1,.27.92,1.64,1.64,0,0,1-.43,1.14,5.26,5.26,0,0,1-1.28,1l.55.65c.16.21.33.4.48.57s.3.33.43.45a6.4,6.4,0,0,0,.27-.61,2.48,2.48,0,0,1,.35-.65.55.55,0,0,1,.45-.2.69.69,0,0,1,.49.19.66.66,0,0,1,.21.48,2.23,2.23,0,0,1-.18.73,6.47,6.47,0,0,1-.53,1l.69.57a4.8,4.8,0,0,1,.58.51.62.62,0,0,1,.11.37.69.69,0,0,1-.22.51.7.7,0,0,1-.49.21,1,1,0,0,1-.54-.17c-.17-.12-.53-.41-1.09-.87a4.16,4.16,0,0,1-.79.59,3.28,3.28,0,0,1-.87.34,4.74,4.74,0,0,1-1,.11A3.89,3.89,0,0,1,16,84.82a2.82,2.82,0,0,1-1-.58,2.27,2.27,0,0,1-.57-.8,2.24,2.24,0,0,1-.19-.9,2.29,2.29,0,0,1,.14-.81,2.48,2.48,0,0,1,.4-.66,3.37,3.37,0,0,1,.62-.56,5.88,5.88,0,0,1,.87-.52,7.2,7.2,0,0,1-.67-1A1.92,1.92,0,0,1,15.36,78.12ZM17,80.92a3.51,3.51,0,0,0-.9.7,1.19,1.19,0,0,0-.29.82,1.25,1.25,0,0,0,.1.51,1.59,1.59,0,0,0,.32.46,1.39,1.39,0,0,0,.48.32,1.46,1.46,0,0,0,.58.11,1.85,1.85,0,0,0,.58-.09,2,2,0,0,0,.54-.27,3.8,3.8,0,0,0,.52-.43c-.35-.32-.66-.64-.94-1S17.4,81.39,17,80.92Zm.59-1.6a6.56,6.56,0,0,0,.87-.64.85.85,0,0,0,.26-.63.78.78,0,0,0-.26-.61.93.93,0,0,0-.67-.25,1,1,0,0,0-.68.25.78.78,0,0,0-.17,1,2.42,2.42,0,0,0,.25.4Z" fill="#fff"/><path d="M27.63,76.3H29.9a6.11,6.11,0,0,1,1.52.16,2.85,2.85,0,0,1,1.15.61,4.37,4.37,0,0,1,1.34,3.5A6.88,6.88,0,0,1,33.77,82a4.47,4.47,0,0,1-.41,1.15,3.76,3.76,0,0,1-.72.92,3.44,3.44,0,0,1-.76.5,3.59,3.59,0,0,1-.88.26,6.83,6.83,0,0,1-1.06.08H27.67a1.38,1.38,0,0,1-.72-.15.65.65,0,0,1-.31-.4,2.58,2.58,0,0,1-.07-.68v-6.3a.91.91,0,0,1,1.06-1.06Zm.68,1.37V83.5h1.32l.67,0a2.36,2.36,0,0,0,.51-.12,1.38,1.38,0,0,0,.46-.26,3.18,3.18,0,0,0,.87-2.54,3.72,3.72,0,0,0-.38-1.91,1.69,1.69,0,0,0-1-.8,4.41,4.41,0,0,0-1.35-.18Z" fill="#fff"/><path d="M41.1,77.64H37.18v2.11h3.61a.85.85,0,0,1,.59.18.59.59,0,0,1,.2.47.62.62,0,0,1-.2.47.78.78,0,0,1-.59.19H37.18V83.5h4a.92.92,0,0,1,.62.19.66.66,0,0,1,.21.51.62.62,0,0,1-.21.49.87.87,0,0,1-.62.2H36.5a.92.92,0,0,1-1.06-1.07V77.36a1.36,1.36,0,0,1,.11-.61.7.7,0,0,1,.35-.35,1.51,1.51,0,0,1,.6-.1h4.6a.92.92,0,0,1,.62.18.63.63,0,0,1,.2.48.63.63,0,0,1-.2.49A.87.87,0,0,1,41.1,77.64Z" fill="#fff"/><path d="M50,82.31a2.6,2.6,0,0,1-.4,1.4,2.66,2.66,0,0,1-1.18,1,4.42,4.42,0,0,1-1.83.35,4.13,4.13,0,0,1-2.1-.48,2.79,2.79,0,0,1-1-.92,2.07,2.07,0,0,1-.37-1.12.8.8,0,0,1,.22-.55.76.76,0,0,1,.56-.22.7.7,0,0,1,.47.17,1.55,1.55,0,0,1,.32.53,3.3,3.3,0,0,0,.36.68,1.34,1.34,0,0,0,.53.46,2.14,2.14,0,0,0,.91.17,2,2,0,0,0,1.26-.36,1.09,1.09,0,0,0,.48-.9A.93.93,0,0,0,48,81.8a1.73,1.73,0,0,0-.67-.41q-.42-.14-1.11-.3a8.32,8.32,0,0,1-1.55-.5,2.69,2.69,0,0,1-1-.79,2.1,2.1,0,0,1-.36-1.25,2.2,2.2,0,0,1,.38-1.26,2.45,2.45,0,0,1,1.12-.85,4.78,4.78,0,0,1,1.73-.29,4,4,0,0,1,1.36.2,2.74,2.74,0,0,1,1,.52,2.05,2.05,0,0,1,.56.68,1.53,1.53,0,0,1,.17.7.83.83,0,0,1-.22.56.71.71,0,0,1-.54.25.65.65,0,0,1-.46-.15,2.27,2.27,0,0,1-.33-.49,2.2,2.2,0,0,0-.57-.76,1.65,1.65,0,0,0-1-.27,1.82,1.82,0,0,0-1.09.29.88.88,0,0,0-.41.71.71.71,0,0,0,.14.45,1.16,1.16,0,0,0,.39.32,2.58,2.58,0,0,0,.49.21c.17,0,.45.13.84.22s.92.24,1.31.38a3.89,3.89,0,0,1,1,.5,2,2,0,0,1,.65.74A2.42,2.42,0,0,1,50,82.31Z" fill="#fff"/><path d="M51.52,84V77.2a1.15,1.15,0,0,1,.24-.79.81.81,0,0,1,.62-.26.83.83,0,0,1,.63.26,1.13,1.13,0,0,1,.25.79V84a1.16,1.16,0,0,1-.25.8.88.88,0,0,1-1.25,0A1.18,1.18,0,0,1,51.52,84Z" fill="#fff"/><path d="M63.05,81.39V83a1.48,1.48,0,0,1-.07.52.88.88,0,0,1-.23.36,2.34,2.34,0,0,1-.45.3,7.13,7.13,0,0,1-1.5.62,6,6,0,0,1-1.57.19,5.15,5.15,0,0,1-1.8-.3,3.78,3.78,0,0,1-2.27-2.29,5.17,5.17,0,0,1-.31-1.85,5.32,5.32,0,0,1,.3-1.83,3.67,3.67,0,0,1,2.29-2.3,5.28,5.28,0,0,1,1.89-.31,4.78,4.78,0,0,1,1.53.23A3.39,3.39,0,0,1,62,77a2.81,2.81,0,0,1,.62.75,1.5,1.5,0,0,1,.21.69.74.74,0,0,1-.24.56.8.8,0,0,1-.58.24.74.74,0,0,1-.36-.09.71.71,0,0,1-.29-.25,7.77,7.77,0,0,0-.55-.76,1.71,1.71,0,0,0-.6-.43,2.22,2.22,0,0,0-1-.18,2.63,2.63,0,0,0-1.08.21,2.2,2.2,0,0,0-.81.6,2.74,2.74,0,0,0-.52,1,4.24,4.24,0,0,0-.18,1.27,3.45,3.45,0,0,0,.7,2.33,2.41,2.41,0,0,0,1.93.81,4.19,4.19,0,0,0,1.14-.15,5.75,5.75,0,0,0,1.07-.46V81.68H60.11a1.46,1.46,0,0,1-.74-.15.51.51,0,0,1-.25-.49.61.61,0,0,1,.21-.48.84.84,0,0,1,.56-.19h2a2.56,2.56,0,0,1,.61.07.67.67,0,0,1,.41.29A1.09,1.09,0,0,1,63.05,81.39Z" fill="#fff"/><path d="M67,77.19l3.35,5.06v-5.1a1.12,1.12,0,0,1,.21-.75.81.81,0,0,1,1.17,0,1.07,1.07,0,0,1,.22.75V83.9c0,.75-.31,1.13-.94,1.13a1.09,1.09,0,0,1-.42-.07.91.91,0,0,1-.35-.21,2.56,2.56,0,0,1-.31-.34l-.28-.4-3.26-5v5a1.09,1.09,0,0,1-.23.74.82.82,0,0,1-1.18,0,1.09,1.09,0,0,1-.22-.74V77.41a1.94,1.94,0,0,1,.09-.66,1,1,0,0,1,.37-.43,1,1,0,0,1,.56-.17.94.94,0,0,1,.69.28,2.37,2.37,0,0,1,.26.33Z" fill="#fff"/><path d="M78.84,77.73l.72-.35c.23-.12.42-.2.56-.26a1,1,0,0,1,.32-.08.52.52,0,0,1,.36.14.43.43,0,0,1,.15.34.46.46,0,0,1-.08.24.29.29,0,0,1-.15.16,7.56,7.56,0,0,1-1.67.44c.11.1.25.23.41.4l.25.27a3.78,3.78,0,0,0,.25.31,2.53,2.53,0,0,1,.22.28.49.49,0,0,1-.08.58.53.53,0,0,1-.37.14c-.14,0-.31-.12-.5-.35a7.42,7.42,0,0,1-.71-1.24l-.6,1.07a2,2,0,0,1-.29.39.53.53,0,0,1-.33.13.49.49,0,0,1-.36-.15.49.49,0,0,1-.14-.32.38.38,0,0,1,.06-.24A8.82,8.82,0,0,1,78,78.36c-.33,0-.62-.11-.88-.17a5.7,5.7,0,0,1-.82-.28.32.32,0,0,1-.13-.16.44.44,0,0,1,.08-.57.49.49,0,0,1,.34-.14,1.13,1.13,0,0,1,.35.08l.54.25.74.36c0-.25-.09-.53-.13-.85s0-.53,0-.65a.55.55,0,0,1,.14-.37.47.47,0,0,1,.36-.16.44.44,0,0,1,.34.16.55.55,0,0,1,.14.41,1.83,1.83,0,0,1,0,.28c0,.14,0,.31-.06.5S78.87,77.48,78.84,77.73Z" fill="#fff"/><path d="M84.23,77.34l-1.64,6.75c0,.23-.1.4-.14.53a.58.58,0,0,1-.19.3.49.49,0,0,1-.36.11q-.6,0-.6-.51a4.53,4.53,0,0,1,.12-.68l1.63-6.75a3,3,0,0,1,.25-.74.49.49,0,0,1,.45-.2.65.65,0,0,1,.45.14.47.47,0,0,1,.16.39A2.88,2.88,0,0,1,84.23,77.34Z" fill="#fff"/><path d="M117.17,102H12.5A12.52,12.52,0,0,1,0,89.49V56.82a12.52,12.52,0,0,1,12.5-12.5H117.17a12.52,12.52,0,0,1,12.5,12.5V89.49A12.52,12.52,0,0,1,117.17,102ZM12.5,45.32A11.51,11.51,0,0,0,1,56.82V89.49A11.51,11.51,0,0,0,12.5,101H117.17a11.51,11.51,0,0,0,11.5-11.5V56.82a11.51,11.51,0,0,0-11.5-11.5Z" fill="#fff"/><path d="M4.49,1.66h4V29.3H21.74v3.35H4.49Z" fill="#fff"/><path d="M25.1,30.26a2.72,2.72,0,0,1,2.76-2.9,2.68,2.68,0,0,1,2.71,2.9,2.74,2.74,0,1,1-5.47,0Z" fill="#fff"/><path d="M45.48,2.07a38.51,38.51,0,0,1,7.31-.64c4,0,6.58.69,8.51,2.25a6.49,6.49,0,0,1,2.57,5.47c0,3-2,5.61-5.24,6.81v.09c2.94.74,6.39,3.17,6.39,7.77A8.37,8.37,0,0,1,62.4,30c-2.16,2-5.66,2.9-10.71,2.9a47.36,47.36,0,0,1-6.21-.37Zm4,12.69h3.63c4.23,0,6.72-2.2,6.72-5.19,0-3.64-2.76-5.06-6.81-5.06a17.87,17.87,0,0,0-3.54.27Zm0,14.86a21.15,21.15,0,0,0,3.35.18c4.14,0,8-1.52,8-6,0-4.23-3.63-6-8-6H49.48Z" fill="#fff"/><path d="M70.27,0h4V32.65h-4Z" fill="#fff"/><path d="M93.45,32.65l-.32-2.8H93a8.29,8.29,0,0,1-6.81,3.31c-4.51,0-6.8-3.17-6.8-6.39,0-5.38,4.78-8.33,13.38-8.28V18c0-1.84-.51-5.15-5.06-5.15a11.14,11.14,0,0,0-5.8,1.65L81,11.87a13.79,13.79,0,0,1,7.32-2c6.8,0,8.46,4.64,8.46,9.1v8.33a30.81,30.81,0,0,0,.37,5.33Zm-.6-11.36c-4.41-.09-9.43.69-9.43,5a3.58,3.58,0,0,0,3.82,3.86,5.53,5.53,0,0,0,5.38-3.73,4.12,4.12,0,0,0,.23-1.28Z" fill="#fff"/><path d="M107.8,4.14a2.51,2.51,0,0,1-5,0,2.47,2.47,0,0,1,2.53-2.53A2.4,2.4,0,0,1,107.8,4.14Zm-4.51,28.51V10.39h4V32.65Z" fill="#fff"/><path d="M114.06,17.34c0-2.62,0-4.88-.19-6.95h3.54l.14,4.37h.19a6.66,6.66,0,0,1,6.16-4.87,4.07,4.07,0,0,1,1.15.14v3.81a6.28,6.28,0,0,0-1.38-.13c-2.85,0-4.88,2.16-5.43,5.19a11.67,11.67,0,0,0-.18,1.89V32.65h-4Z" fill="#fff"/></svg>