<svg xmlns="http://www.w3.org/2000/svg" width="129.67" height="57.67" viewBox="0 0 129.67 57.67"><defs><style>.cls-1{fill:#fff;}</style></defs><title>Asset 1</title><g id="Layer_2" data-name="Layer 2"><g id="Layer_1-2" data-name="Layer 1"><path class="cls-1" d="M16.59,18.62,15,25.38c0,.22-.1.39-.14.52a.65.65,0,0,1-.19.31.53.53,0,0,1-.36.1q-.6,0-.6-.51a4.53,4.53,0,0,1,.12-.68l1.63-6.75a3,3,0,0,1,.25-.74.48.48,0,0,1,.45-.2.65.65,0,0,1,.45.14.48.48,0,0,1,.16.39A2.88,2.88,0,0,1,16.59,18.62Z"/><path class="cls-1" d="M19.82,19c.26-.11.5-.23.73-.35s.41-.2.55-.26a1.1,1.1,0,0,1,.33-.08.52.52,0,0,1,.35.14.45.45,0,0,1,.15.34.44.44,0,0,1-.07.24.38.38,0,0,1-.16.17,7.47,7.47,0,0,1-1.66.43c.11.1.24.24.4.4l.26.27a2.4,2.4,0,0,0,.24.31,1.7,1.7,0,0,1,.22.28.49.49,0,0,1,.06.25.42.42,0,0,1-.14.33.49.49,0,0,1-.36.14c-.15,0-.32-.12-.5-.35A6.66,6.66,0,0,1,19.5,20l-.6,1.07a2,2,0,0,1-.29.39.44.44,0,0,1-.32.13.46.46,0,0,1-.36-.15.45.45,0,0,1-.15-.32.43.43,0,0,1,.06-.24A8.86,8.86,0,0,1,19,19.64c-.33-.05-.62-.11-.88-.17a4.43,4.43,0,0,1-.82-.28.28.28,0,0,1-.14-.16.43.43,0,0,1-.07-.23.45.45,0,0,1,.15-.34.51.51,0,0,1,.34-.14.94.94,0,0,1,.36.09,4.32,4.32,0,0,1,.53.24l.74.36a8.06,8.06,0,0,1-.12-.84,5.59,5.59,0,0,1,0-.66.5.5,0,0,1,.14-.37.48.48,0,0,1,.7,0,.6.6,0,0,1,.14.41c0,.05,0,.14,0,.28s0,.31-.06.51S19.85,18.76,19.82,19Z"/><path class="cls-1" d="M27.14,17.58h2.27a6.16,6.16,0,0,1,1.52.16,2.77,2.77,0,0,1,1.14.62,4.32,4.32,0,0,1,1.35,3.49,6.88,6.88,0,0,1-.14,1.41,4.34,4.34,0,0,1-.41,1.15,3.57,3.57,0,0,1-.73.92,3.07,3.07,0,0,1-.75.5,3.59,3.59,0,0,1-.88.26,6.87,6.87,0,0,1-1.07.08H27.18a1.38,1.38,0,0,1-.72-.15.65.65,0,0,1-.31-.4,2.48,2.48,0,0,1-.08-.68v-6.3a1.11,1.11,0,0,1,.26-.81A1.09,1.09,0,0,1,27.14,17.58ZM27.81,19v5.83h1.32a6.35,6.35,0,0,0,.68,0,1.58,1.58,0,0,0,.51-.12,1.38,1.38,0,0,0,.46-.26,3.18,3.18,0,0,0,.87-2.54,3.83,3.83,0,0,0-.38-1.91,1.69,1.69,0,0,0-.95-.8A4.48,4.48,0,0,0,29,19Z"/><path class="cls-1" d="M40.61,18.92H36.69V21h3.6a.86.86,0,0,1,.6.18.6.6,0,0,1,.2.47.66.66,0,0,1-.2.48.86.86,0,0,1-.6.18h-3.6v2.44h4.05a.94.94,0,0,1,.62.19.66.66,0,0,1,.21.51.66.66,0,0,1-.21.5.94.94,0,0,1-.62.19H36A.9.9,0,0,1,35,25.1V18.64a1.36,1.36,0,0,1,.11-.61.65.65,0,0,1,.35-.34,1.31,1.31,0,0,1,.6-.11h4.6a.89.89,0,0,1,.61.18.62.62,0,0,1,.21.49.6.6,0,0,1-.21.48A.84.84,0,0,1,40.61,18.92Z"/><path class="cls-1" d="M44.22,18.57l2,5.76,1.95-5.8a6,6,0,0,1,.23-.63.85.85,0,0,1,.25-.33.76.76,0,0,1,.48-.14.84.84,0,0,1,.41.11.79.79,0,0,1,.3.3.72.72,0,0,1,.11.37,1,1,0,0,1,0,.28,2.45,2.45,0,0,1-.08.29l-.11.3-2.08,5.61c-.07.22-.15.42-.22.61a2.42,2.42,0,0,1-.26.51,1.12,1.12,0,0,1-.39.36,1.1,1.1,0,0,1-.59.14,1.21,1.21,0,0,1-.6-.13,1.26,1.26,0,0,1-.39-.37,2.44,2.44,0,0,1-.26-.51c-.08-.19-.15-.39-.23-.61l-2-5.57c0-.1-.07-.2-.11-.29a1.68,1.68,0,0,1-.09-.32,1.11,1.11,0,0,1,0-.29.75.75,0,0,1,.24-.54.79.79,0,0,1,.6-.25.7.7,0,0,1,.63.27A3.34,3.34,0,0,1,44.22,18.57Z"/><path class="cls-1" d="M56.87,18.92H53V21h3.6a.86.86,0,0,1,.6.18.6.6,0,0,1,.2.47.66.66,0,0,1-.2.48.86.86,0,0,1-.6.18H53v2.44h4a.94.94,0,0,1,.62.19.66.66,0,0,1,.21.51.66.66,0,0,1-.21.5.94.94,0,0,1-.62.19H52.27a.9.9,0,0,1-1.06-1.07V18.64a1.36,1.36,0,0,1,.11-.61.65.65,0,0,1,.35-.34,1.31,1.31,0,0,1,.6-.11h4.6a.89.89,0,0,1,.61.18.62.62,0,0,1,.21.49.6.6,0,0,1-.21.48A.84.84,0,0,1,56.87,18.92Z"/><path class="cls-1" d="M60.91,18.49v6.25h3.53a1,1,0,0,1,.65.2.67.67,0,0,1,.22.52.64.64,0,0,1-.22.51,1,1,0,0,1-.65.2h-4.2a.91.91,0,0,1-1.07-1.07V18.49a1.16,1.16,0,0,1,.24-.8.89.89,0,0,1,1.26,0A1.16,1.16,0,0,1,60.91,18.49Z"/><path class="cls-1" d="M69.64,17.43a4.59,4.59,0,0,1,2.29.54,3.54,3.54,0,0,1,1.45,1.54,5.25,5.25,0,0,1,.5,2.35,5.73,5.73,0,0,1-.27,1.81,3.94,3.94,0,0,1-.81,1.41,3.49,3.49,0,0,1-1.33.92,4.78,4.78,0,0,1-1.8.31,4.66,4.66,0,0,1-1.8-.32,3.53,3.53,0,0,1-1.33-.92,4,4,0,0,1-.81-1.42,5.85,5.85,0,0,1-.27-1.8A5.56,5.56,0,0,1,65.75,20a3.68,3.68,0,0,1,.82-1.4,3.51,3.51,0,0,1,1.31-.89A4.64,4.64,0,0,1,69.64,17.43Zm2.47,4.42a4.1,4.1,0,0,0-.3-1.64,2.31,2.31,0,0,0-.87-1,2.37,2.37,0,0,0-1.3-.36,2.4,2.4,0,0,0-1,.2,2.21,2.21,0,0,0-.76.57,2.72,2.72,0,0,0-.5,1,4.4,4.4,0,0,0-.19,1.31,4.47,4.47,0,0,0,.19,1.32,2.69,2.69,0,0,0,.52,1,2.27,2.27,0,0,0,.77.59,2.48,2.48,0,0,0,2.19-.14,2.39,2.39,0,0,0,.89-1A4,4,0,0,0,72.11,21.85Z"/><path class="cls-1" d="M78.7,22.82H77.1v2.43a1.15,1.15,0,0,1-.24.79.81.81,0,0,1-.62.27.84.84,0,0,1-.64-.26,1.15,1.15,0,0,1-.24-.79V18.64a1.08,1.08,0,0,1,.27-.82,1.19,1.19,0,0,1,.83-.24H78.7a5.88,5.88,0,0,1,1.52.15,2.23,2.23,0,0,1,.91.49,2,2,0,0,1,.58.83,2.82,2.82,0,0,1,.2,1.11,2.46,2.46,0,0,1-.8,2A3.65,3.65,0,0,1,78.7,22.82Zm-.42-3.94H77.1v2.63h1.18a3.29,3.29,0,0,0,1-.13,1.21,1.21,0,0,0,.63-.42,1.23,1.23,0,0,0,.22-.77,1.32,1.32,0,0,0-.33-.93A2.26,2.26,0,0,0,78.28,18.88Z"/><path class="cls-1" d="M86.27,24.87,84.89,19.4v5.93a1.07,1.07,0,0,1-.22.74.82.82,0,0,1-1.16,0,1.11,1.11,0,0,1-.22-.74v-6.8a.87.87,0,0,1,.29-.76,1.44,1.44,0,0,1,.8-.19h.53a2,2,0,0,1,.71.09A.56.56,0,0,1,86,18a4.77,4.77,0,0,1,.24.75l1.24,4.7,1.25-4.7a4.77,4.77,0,0,1,.24-.75.56.56,0,0,1,.33-.31,2,2,0,0,1,.7-.09h.54a1.4,1.4,0,0,1,.79.19.85.85,0,0,1,.3.76v6.8a1.13,1.13,0,0,1-.22.74.78.78,0,0,1-.59.24.75.75,0,0,1-.57-.24,1.07,1.07,0,0,1-.22-.74V19.4L88.6,24.87c-.09.36-.16.62-.22.78a1.14,1.14,0,0,1-.31.46,1.1,1.1,0,0,1-1.15.07,1,1,0,0,1-.33-.34,1.51,1.51,0,0,1-.18-.45C86.36,25.22,86.31,25.05,86.27,24.87Z"/><path class="cls-1" d="M99,18.92H95.1V21h3.61a.86.86,0,0,1,.6.18.6.6,0,0,1,.19.47.65.65,0,0,1-.19.48.86.86,0,0,1-.6.18H95.1v2.44h4.06a.94.94,0,0,1,.62.19.66.66,0,0,1,.2.51.65.65,0,0,1-.2.5.94.94,0,0,1-.62.19H94.43a.91.91,0,0,1-1.07-1.07V18.64a1.51,1.51,0,0,1,.11-.61.72.72,0,0,1,.35-.34,1.36,1.36,0,0,1,.61-.11H99a.9.9,0,0,1,.62.18.61.61,0,0,1,.2.49.59.59,0,0,1-.2.48A.85.85,0,0,1,99,18.92Z"/><path class="cls-1" d="M103.63,18.47,107,23.54V18.43a1.14,1.14,0,0,1,.21-.75.81.81,0,0,1,1.17,0,1.08,1.08,0,0,1,.22.75v6.75c0,.76-.31,1.13-.94,1.13a1.42,1.42,0,0,1-.42-.06,1.2,1.2,0,0,1-.35-.22,2.56,2.56,0,0,1-.31-.34c-.09-.13-.18-.27-.28-.4l-3.26-5v5a1.07,1.07,0,0,1-.23.74.74.74,0,0,1-.58.25.76.76,0,0,1-.6-.25,1.09,1.09,0,0,1-.22-.74V18.69a1.94,1.94,0,0,1,.09-.66,1,1,0,0,1,.37-.43,1,1,0,0,1,.56-.17,1,1,0,0,1,.4.08,1,1,0,0,1,.29.2,2,2,0,0,1,.26.34C103.45,18.18,103.54,18.33,103.63,18.47Z"/><path class="cls-1" d="M116.06,19h-1.9v6.24a1.14,1.14,0,0,1-.24.8.77.77,0,0,1-.62.26.79.79,0,0,1-.63-.26,1.16,1.16,0,0,1-.24-.8V19h-1.9a1,1,0,0,1-.66-.19.66.66,0,0,1-.22-.52.67.67,0,0,1,.23-.53,1,1,0,0,1,.65-.19h5.53a.93.93,0,0,1,.67.2.65.65,0,0,1,.22.52.66.66,0,0,1-.22.52A1,1,0,0,1,116.06,19Z"/><path class="cls-1" d="M15.36,33.8a1.79,1.79,0,0,1,.28-1,2,2,0,0,1,.84-.72,3,3,0,0,1,1.29-.26,2.72,2.72,0,0,1,1.28.28,1.82,1.82,0,0,1,.8.72,1.72,1.72,0,0,1,.27.92,1.68,1.68,0,0,1-.43,1.15,5.81,5.81,0,0,1-1.28,1l.55.65c.16.2.33.39.48.56l.43.46c.06-.11.15-.32.27-.62a2.48,2.48,0,0,1,.35-.65.55.55,0,0,1,.45-.2.7.7,0,0,1,.49.2.62.62,0,0,1,.21.47,2.17,2.17,0,0,1-.18.73,6.47,6.47,0,0,1-.53,1l.69.57a3.88,3.88,0,0,1,.58.52.57.57,0,0,1,.11.36.71.71,0,0,1-.22.52.73.73,0,0,1-.49.2,1,1,0,0,1-.54-.17c-.17-.12-.53-.41-1.09-.86a4.56,4.56,0,0,1-.79.58,3.28,3.28,0,0,1-.87.34,4.2,4.2,0,0,1-1,.11A3.89,3.89,0,0,1,16,40.5a2.82,2.82,0,0,1-1-.58,2.27,2.27,0,0,1-.57-.8,2.24,2.24,0,0,1-.19-.9,2.33,2.33,0,0,1,.14-.81,2.48,2.48,0,0,1,.4-.66,3.37,3.37,0,0,1,.62-.56,6.89,6.89,0,0,1,.87-.52,7.2,7.2,0,0,1-.67-1A1.92,1.92,0,0,1,15.36,33.8ZM17,36.61a3.51,3.51,0,0,0-.9.69,1.19,1.19,0,0,0-.29.82,1.25,1.25,0,0,0,.1.51,1.59,1.59,0,0,0,.32.46,1.39,1.39,0,0,0,.48.32,1.46,1.46,0,0,0,.58.11,1.85,1.85,0,0,0,.58-.09,2,2,0,0,0,.54-.27,3.8,3.8,0,0,0,.52-.43,12,12,0,0,1-.94-.95C17.73,37.47,17.4,37.07,17,36.61ZM17.61,35a5.77,5.77,0,0,0,.87-.64.82.82,0,0,0,.26-.63.78.78,0,0,0-.26-.61,1,1,0,0,0-.67-.25,1,1,0,0,0-.68.26.76.76,0,0,0-.27.59.86.86,0,0,0,.1.38,3.68,3.68,0,0,0,.25.4Z"/><path class="cls-1" d="M27.63,32H29.9a6.11,6.11,0,0,1,1.52.16,2.88,2.88,0,0,1,1.15.62,4.35,4.35,0,0,1,1.34,3.49,6.88,6.88,0,0,1-.14,1.41,4.34,4.34,0,0,1-.41,1.15,3.76,3.76,0,0,1-.72.92,3.12,3.12,0,0,1-.76.5,3.59,3.59,0,0,1-.88.26,6.83,6.83,0,0,1-1.06.08H27.67a1.38,1.38,0,0,1-.72-.15.65.65,0,0,1-.31-.4,2.53,2.53,0,0,1-.07-.68V33A.91.91,0,0,1,27.63,32Zm.68,1.37v5.83h1.32a6.24,6.24,0,0,0,.67,0,1.58,1.58,0,0,0,.51-.12,1.38,1.38,0,0,0,.46-.26,3.18,3.18,0,0,0,.87-2.54,3.72,3.72,0,0,0-.38-1.91,1.69,1.69,0,0,0-1-.8,4.41,4.41,0,0,0-1.35-.18Z"/><path class="cls-1" d="M41.1,33.32H37.18v2.11h3.61a.85.85,0,0,1,.59.18.6.6,0,0,1,.2.47.66.66,0,0,1-.2.48.82.82,0,0,1-.59.18H37.18v2.44h4a.92.92,0,0,1,.62.19.66.66,0,0,1,.21.51.66.66,0,0,1-.21.5.92.92,0,0,1-.62.19H36.5a1.09,1.09,0,0,1-.81-.26,1.08,1.08,0,0,1-.25-.81V33a1.36,1.36,0,0,1,.11-.61.65.65,0,0,1,.35-.34,1.34,1.34,0,0,1,.6-.11h4.6a.92.92,0,0,1,.62.18.65.65,0,0,1,.2.49.63.63,0,0,1-.2.48A.87.87,0,0,1,41.1,33.32Z"/><path class="cls-1" d="M50,38a2.57,2.57,0,0,1-.4,1.4,2.66,2.66,0,0,1-1.18,1,4.27,4.27,0,0,1-1.83.35,4.13,4.13,0,0,1-2.1-.48,2.79,2.79,0,0,1-1-.92,2,2,0,0,1-.37-1.12.77.77,0,0,1,.78-.77.66.66,0,0,1,.47.18,1.41,1.41,0,0,1,.32.52,3.3,3.3,0,0,0,.36.68,1.34,1.34,0,0,0,.53.46,2,2,0,0,0,.91.18,2,2,0,0,0,1.26-.36,1.09,1.09,0,0,0,.48-.9.94.94,0,0,0-.26-.7,1.73,1.73,0,0,0-.67-.41c-.28-.09-.65-.19-1.11-.29a9.08,9.08,0,0,1-1.55-.51,2.59,2.59,0,0,1-1-.79,2.1,2.1,0,0,1-.36-1.25A2.2,2.2,0,0,1,43.69,33a2.43,2.43,0,0,1,1.12-.84,4.57,4.57,0,0,1,1.73-.3,4.24,4.24,0,0,1,1.36.2,2.74,2.74,0,0,1,1,.52,2.16,2.16,0,0,1,.56.68,1.53,1.53,0,0,1,.17.7.81.81,0,0,1-.22.56.71.71,0,0,1-.54.25.65.65,0,0,1-.46-.15A2.27,2.27,0,0,1,48,34.1a2.2,2.2,0,0,0-.57-.76,1.65,1.65,0,0,0-1-.27,1.9,1.9,0,0,0-1.09.29.88.88,0,0,0-.41.71.67.67,0,0,0,.14.45,1.05,1.05,0,0,0,.39.32,2.58,2.58,0,0,0,.49.21l.84.23a11.57,11.57,0,0,1,1.31.37,3.89,3.89,0,0,1,1,.5,2,2,0,0,1,.65.74A2.45,2.45,0,0,1,50,38Z"/><path class="cls-1" d="M51.52,39.65V32.89a1.16,1.16,0,0,1,.24-.8.81.81,0,0,1,.62-.26.83.83,0,0,1,.63.26,1.16,1.16,0,0,1,.25.8v6.76a1.16,1.16,0,0,1-.25.8.79.79,0,0,1-.63.26.82.82,0,0,1-.62-.26A1.18,1.18,0,0,1,51.52,39.65Z"/><path class="cls-1" d="M63.05,37.07v1.65a1.58,1.58,0,0,1-.07.53.85.85,0,0,1-.23.35,2,2,0,0,1-.45.3,6.63,6.63,0,0,1-1.5.62,6,6,0,0,1-1.57.19,5.15,5.15,0,0,1-1.8-.3A3.65,3.65,0,0,1,56,39.52a3.8,3.8,0,0,1-.88-1.4,5.17,5.17,0,0,1-.31-1.85,5.32,5.32,0,0,1,.3-1.83,3.73,3.73,0,0,1,2.29-2.3,5.28,5.28,0,0,1,1.89-.31,4.78,4.78,0,0,1,1.53.23,3.4,3.4,0,0,1,1.09.59,2.63,2.63,0,0,1,.62.74,1.5,1.5,0,0,1,.21.7.76.76,0,0,1-.24.56.83.83,0,0,1-.58.23.74.74,0,0,1-.36-.09.71.71,0,0,1-.29-.25,7.77,7.77,0,0,0-.55-.76,1.85,1.85,0,0,0-.6-.43,2.22,2.22,0,0,0-1-.18,2.63,2.63,0,0,0-1.08.21,2.2,2.2,0,0,0-.81.6,2.74,2.74,0,0,0-.52,1,4.3,4.3,0,0,0-.18,1.28,3.44,3.44,0,0,0,.7,2.32,2.41,2.41,0,0,0,1.93.82,4.19,4.19,0,0,0,1.14-.16,6.44,6.44,0,0,0,1.07-.45v-1.4H60.11a1.59,1.59,0,0,1-.74-.14.53.53,0,0,1-.25-.5.63.63,0,0,1,.21-.48.84.84,0,0,1,.56-.18h2a2.62,2.62,0,0,1,.61.06.67.67,0,0,1,.41.29A1.11,1.11,0,0,1,63.05,37.07Z"/><path class="cls-1" d="M67,32.87l3.35,5.07V32.83a1.14,1.14,0,0,1,.21-.75.81.81,0,0,1,1.17,0,1.08,1.08,0,0,1,.22.75v6.75c0,.76-.31,1.13-.94,1.13a1.33,1.33,0,0,1-.42-.06,1.08,1.08,0,0,1-.35-.22,2.56,2.56,0,0,1-.31-.34l-.28-.4-3.26-5v5a1.07,1.07,0,0,1-.23.74.82.82,0,0,1-1.18,0,1.09,1.09,0,0,1-.22-.74V33.09a1.94,1.94,0,0,1,.09-.66,1,1,0,0,1,.37-.43,1,1,0,0,1,.56-.17,1,1,0,0,1,.4.08,1,1,0,0,1,.29.2,2,2,0,0,1,.26.34C66.79,32.58,66.88,32.73,67,32.87Z"/><path class="cls-1" d="M78.84,33.41c.25-.11.49-.23.72-.35s.42-.2.56-.26a1,1,0,0,1,.32-.08.52.52,0,0,1,.36.14.43.43,0,0,1,.15.34.46.46,0,0,1-.08.24.37.37,0,0,1-.15.17,7.56,7.56,0,0,1-1.67.43l.41.4.25.27A2.61,2.61,0,0,0,80,35a2.53,2.53,0,0,1,.22.28.49.49,0,0,1,.06.25.45.45,0,0,1-.14.33.53.53,0,0,1-.37.14c-.14,0-.31-.12-.5-.35a7.42,7.42,0,0,1-.71-1.24l-.6,1.07a2,2,0,0,1-.29.39.48.48,0,0,1-.33.13.49.49,0,0,1-.36-.15.49.49,0,0,1-.14-.32.43.43,0,0,1,.06-.24A8.82,8.82,0,0,1,78,34c-.33,0-.62-.11-.88-.17a4.69,4.69,0,0,1-.82-.28.32.32,0,0,1-.13-.16.44.44,0,0,1,.08-.57.49.49,0,0,1,.34-.14,1,1,0,0,1,.35.09,5.14,5.14,0,0,1,.54.24l.74.36c0-.24-.09-.53-.13-.84s0-.54,0-.66a.55.55,0,0,1,.14-.37.46.46,0,0,1,.36-.15.43.43,0,0,1,.34.15A.55.55,0,0,1,79,32a1.83,1.83,0,0,1,0,.28q0,.21-.06.51C78.9,32.93,78.87,33.16,78.84,33.41Z"/><path class="cls-1" d="M84.23,33l-1.64,6.76c0,.22-.1.39-.14.52a.58.58,0,0,1-.19.3.49.49,0,0,1-.36.11q-.6,0-.6-.51a4.53,4.53,0,0,1,.12-.68l1.63-6.75A3,3,0,0,1,83.3,32a.49.49,0,0,1,.45-.2.65.65,0,0,1,.45.14.47.47,0,0,1,.16.39A2.88,2.88,0,0,1,84.23,33Z"/><path class="cls-1" d="M117.17,57.67H12.5A12.52,12.52,0,0,1,0,45.17V12.5A12.52,12.52,0,0,1,12.5,0H117.17a12.52,12.52,0,0,1,12.5,12.5V45.17A12.52,12.52,0,0,1,117.17,57.67ZM12.5,1A11.51,11.51,0,0,0,1,12.5V45.17a11.51,11.51,0,0,0,11.5,11.5H117.17a11.51,11.51,0,0,0,11.5-11.5V12.5A11.51,11.51,0,0,0,117.17,1Z"/></g></g></svg>